<?xml version="1.0" encoding="UTF-8" standalone="no"?>
<!-- Created with Inkscape (http://www.inkscape.org/) -->

<svg
   id="svg5"
   version="1.1"
   viewBox="0 0 210 297"
   height="297mm"
   width="210mm"
   sodipodi:docname="boxfverk.svg"
   inkscape:version="1.1 (c68e22c387, 2021-05-23)"
   xmlns:inkscape="http://www.inkscape.org/namespaces/inkscape"
   xmlns:sodipodi="http://sodipodi.sourceforge.net/DTD/sodipodi-0.dtd"
   xmlns="http://www.w3.org/2000/svg"
   xmlns:svg="http://www.w3.org/2000/svg">
  <sodipodi:namedview
     id="namedview7"
     pagecolor="#ffffff"
     bordercolor="#666666"
     borderopacity="1.0"
     inkscape:pageshadow="2"
     inkscape:pageopacity="0.0"
     inkscape:pagecheckerboard="0"
     inkscape:document-units="mm"
     showgrid="false"
     inkscape:zoom="0.78239463"
     inkscape:cx="626.28242"
     inkscape:cy="230.06293"
     inkscape:window-width="1280"
     inkscape:window-height="698"
     inkscape:window-x="-6"
     inkscape:window-y="-6"
     inkscape:window-maximized="1"
     inkscape:current-layer="layer1"
     showguides="true"
     inkscape:guide-bbox="true" />
  <defs
     id="defs2" />
  <g
     inkscape:label="Layer 1"
     inkscape:groupmode="layer"
     id="layer1">
    <g
       id="panel2170"
       transform="translate(-0.3381712,4.0580544)">
      <path
         style="fill:none;stroke:#000000;stroke-width:1"
         d="m 58.4,128.9 h 7.24 v -3.1 h 7.2 v 3.1 h 7.14 v -3.1 h 7.2 v 3.1 h 7.14 v -3.1 h 7.2 v 3.1 h 7.14 v -3.1 h 7.2 v 3.1 H 123 v -3.1 h 7.2 v 3.1 h 7.14 v -3.1 h 7.2 v 3.1 h 7.14 v -3.1 h 7.2 v 3.1 h 7.14 v -3.1 h 7.2 v 3.1 h 7.14 v -3.1 h 7.2 v 3.1 h 7.24"
         id="path125" />
      <path
         style="fill:none;stroke:#000000;stroke-width:1"
         d="m 194.8,128.9 v 5.85 h -3.1 v 6.8 h 3.1 v 9.05 h -3.1 v 6.8 h 3.1 v 9.05 h -3.1 v 6.8 h 3.1 v 5.85"
         id="path127" />
      <path
         style="fill:none;stroke:#000000;stroke-width:1"
         d="m 194.8,179.1 h -7.24 v 3.1 h -7.2 v -3.1 h -7.14 v 3.1 h -7.2 v -3.1 h -7.14 v 3.1 h -7.2 v -3.1 h -7.14 v 3.1 h -7.2 v -3.1 h -7.14 v 3.1 H 123 v -3.1 h -7.14 v 3.1 h -7.2 v -3.1 h -7.14 v 3.1 h -7.2 v -3.1 h -7.14 v 3.1 h -7.2 v -3.1 h -7.14 v 3.1 h -7.2 v -3.1 H 58.4"
         id="path129" />
      <path
         style="fill:none;stroke:#000000;stroke-width:1"
         d="m 58.4,179.1 v -5.85 h 3.1 v -6.8 h -3.1 v -9.05 h 3.1 v -6.8 h -3.1 v -9.05 h 3.1 v -6.8 h -3.1 v -5.85"
         id="path131" />
    </g>
    <g
       id="panel4072"
       transform="translate(-6.0870817,2.0290272)">
      <path
         style="fill:none;stroke:#000000;stroke-width:1"
         d="m 4.1,61.5 h 5.65 v -3.1 h 7.2 v 3.1 h 8.65 v -3.1 h 7.2 v 3.1 h 8.65 v -3.1 h 7.2 v 3.1 h 5.65"
         id="path134" />
      <path
         style="fill:none;stroke:#000000;stroke-width:1"
         d="m 54.3,61.5 v 4.48 h 3.1 v 7.2 h -3.1 v 7.48 7.2 7.48 7.2 7.48 h 3.1 v 7.2 h -3.1 v 4.48"
         id="path136"
         sodipodi:nodetypes="cccccccccccccc" />
      <path
         style="fill:none;stroke:#000000;stroke-width:1"
         d="m 54.3,121.7 h -5.65 v 3.1 h -7.2 v -3.1 H 32.8 v 3.1 h -7.2 v -3.1 h -8.65 v 3.1 h -7.2 v -3.1 H 4.1"
         id="path138" />
      <path
         style="fill:none;stroke:#000000;stroke-width:1"
         d="m 4.1,121.7 v -4.48 H 1 v -7.2 h 3.1 v -7.48 H 1 v -7.2 H 4.1 V 87.86 H 1 v -7.2 H 4.1 V 73.18 H 1 v -7.2 H 4.1 V 61.5"
         id="path140" />
    </g>
    <g
       id="panel3912">
      <path
         style="fill:none;stroke:#000000;stroke-width:1"
         d="M 56.8125,58.4 H 194.8"
         id="path143"
         sodipodi:nodetypes="cc" />
      <path
         style="fill:none;stroke:#000000;stroke-width:1"
         d="m 194.8,58.4 v 7.78 h -3.1 v 6.8 h 3.1 v 7.88 h -3.1 v 21.48 h 3.1 v 7.88 h -3.1 v 6.8 h 3.1 v 7.78"
         id="path145"
         sodipodi:nodetypes="cccccccccccccc" />
      <path
         style="fill:none;stroke:#000000;stroke-width:1"
         d="M 194.8,124.8 H 56.8125"
         id="path147"
         sodipodi:nodetypes="cc" />
      <path
         style="fill:none;stroke:#000000;stroke-width:1"
         d="m 56.8125,124.8 v -7.78 H 61.5 v -6.8 h -4.6875 v -7.88 H 61.5 V 80.86 H 56.8125 V 72.98 H 61.5 v -6.8 H 56.8125 V 58.4"
         id="path149"
         sodipodi:nodetypes="cccccccccccccc" />
    </g>
    <g
       id="panel5452"
       transform="translate(1.0145136,-4.3962257)">
      <path
         style="fill:none;stroke:#000000;stroke-width:1"
         d="m 198.9,61.5 h 5.65 v -3.1 h 7.2 v 3.1 h 8.65 v -3.1 h 7.2 v 3.1 h 8.65 v -3.1 h 7.2 v 3.1 h 5.65"
         id="path152" />
      <path
         style="fill:none;stroke:#000000;stroke-width:1"
         d="m 249.1,61.5 v 4.48 h 3.1 v 7.2 h -3.1 v 7.48 h 3.1 v 7.2 h -3.1 v 7.48 h 3.1 v 7.2 h -3.1 v 7.48 h 3.1 v 7.2 h -3.1 v 4.48"
         id="path154" />
      <path
         style="fill:none;stroke:#000000;stroke-width:1"
         d="m 249.1,121.7 h -5.65 v 3.1 h -7.2 v -3.1 h -8.65 v 3.1 h -7.2 v -3.1 h -8.65 v 3.1 h -7.2 v -3.1 h -5.65"
         id="path156" />
      <path
         style="fill:none;stroke:#000000;stroke-width:1"
         d="m 198.9,121.7 v -4.48 h -3.1 v -7.2 h 3.1 V 73.18 h -3.1 v -7.2 h 3.1 V 61.5"
         id="path158"
         sodipodi:nodetypes="cccccccccc" />
    </g>
    <g
       id="panel6057">
      <path
         style="fill:none;stroke:#000000;stroke-width:1"
         d="M 253.2 58.4 L 260.64 58.4 L 260.64 61.5 L 267.44 61.5 L 267.44 58.4 L 274.98 58.4 L 274.98 61.5 L 281.78 61.5 L 281.78 58.4 L 289.32 58.4 L 289.32 61.5 L 296.12 61.5 L 296.12 58.4 L 303.66 58.4 L 303.66 61.5 L 310.46 61.5 L 310.46 58.4 L 318 58.4 L 318 61.5 L 324.8 61.5 L 324.8 58.4 L 332.34 58.4 L 332.34 61.5 L 339.14 61.5 L 339.14 58.4 L 346.68 58.4 L 346.68 61.5 L 353.48 61.5 L 353.48 58.4 L 361.02 58.4 L 361.02 61.5 L 367.82 61.5 L 367.82 58.4 L 375.36 58.4 L 375.36 61.5 L 382.16 61.5 L 382.16 58.4 L 389.6 58.4"
         id="path161" />
      <path
         style="fill:none;stroke:#000000;stroke-width:1"
         d="M 389.6 58.4 L 389.6 66.18 L 386.5 66.18 L 386.5 72.98 L 389.6 72.98 L 389.6 80.86 L 386.5 80.86 L 386.5 87.66 L 389.6 87.66 L 389.6 95.54 L 386.5 95.54 L 386.5 102.34 L 389.6 102.34 L 389.6 110.22 L 386.5 110.22 L 386.5 117.02 L 389.6 117.02 L 389.6 124.8"
         id="path163" />
      <path
         style="fill:none;stroke:#000000;stroke-width:1"
         d="M 389.6 124.8 L 382.16 124.8 L 382.16 121.7 L 375.36 121.7 L 375.36 124.8 L 367.82 124.8 L 367.82 121.7 L 361.02 121.7 L 361.02 124.8 L 353.48 124.8 L 353.48 121.7 L 346.68 121.7 L 346.68 124.8 L 339.14 124.8 L 339.14 121.7 L 332.34 121.7 L 332.34 124.8 L 324.8 124.8 L 324.8 121.7 L 318 121.7 L 318 124.8 L 310.46 124.8 L 310.46 121.7 L 303.66 121.7 L 303.66 124.8 L 296.12 124.8 L 296.12 121.7 L 289.32 121.7 L 289.32 124.8 L 281.78 124.8 L 281.78 121.7 L 274.98 121.7 L 274.98 124.8 L 267.44 124.8 L 267.44 121.7 L 260.64 121.7 L 260.64 124.8 L 253.2 124.8"
         id="path165" />
      <path
         style="fill:none;stroke:#000000;stroke-width:1"
         d="M 253.2 124.8 L 253.2 117.02 L 256.3 117.02 L 256.3 110.22 L 253.2 110.22 L 253.2 102.34 L 256.3 102.34 L 256.3 95.54 L 253.2 95.54 L 253.2 87.66 L 256.3 87.66 L 256.3 80.86 L 253.2 80.86 L 253.2 72.98 L 256.3 72.98 L 256.3 66.18 L 253.2 66.18 L 253.2 58.4"
         id="path167" />
    </g>
    <g
       id="panel2616"
       transform="translate(-0.67634241,-3.0435408)">
      <path
         style="fill:none;stroke:#000000;stroke-width:1"
         d="m 58.4,4.1 h 7.24 V 1 h 7.2 v 3.1 h 7.14 V 1 h 7.2 v 3.1 h 7.14 V 1 h 7.2 v 3.1 h 7.14 V 1 h 7.2 V 4.1 H 123 V 1 h 7.2 v 3.1 h 7.14 V 1 h 7.2 v 3.1 h 7.14 V 1 h 7.2 v 3.1 h 7.14 V 1 h 7.2 v 3.1 h 7.14 V 1 h 7.2 v 3.1 h 7.24"
         id="path170" />
      <path
         style="fill:none;stroke:#000000;stroke-width:1"
         d="m 194.8,4.1 v 5.85 h -3.1 v 6.8 h 3.1 v 9.05 h -3.1 v 6.8 h 3.1 v 9.05 h -3.1 v 6.8 h 3.1 v 5.85"
         id="path172" />
      <path
         style="fill:none;stroke:#000000;stroke-width:1"
         d="m 194.8,54.3 h -7.24 v 3.1 h -7.2 v -3.1 h -7.14 v 3.1 h -7.2 v -3.1 h -7.14 v 3.1 h -7.2 v -3.1 h -7.14 v 3.1 h -7.2 v -3.1 h -7.14 v 3.1 H 123 v -3.1 h -7.14 v 3.1 h -7.2 v -3.1 h -7.14 v 3.1 h -7.2 v -3.1 h -7.14 v 3.1 h -7.2 v -3.1 h -7.14 v 3.1 h -7.2 V 54.3 H 58.4"
         id="path174" />
      <path
         style="fill:none;stroke:#000000;stroke-width:1"
         d="m 58.4,54.3 v -5.85 h 3.1 v -6.8 H 58.4 V 32.6 h 3.1 v -6.8 h -3.1 v -9.05 h 3.1 V 9.95 H 58.4 V 4.1"
         id="path176" />
    </g>
    <circle
       style="fill:#ff0000;fill-opacity:0;stroke:#000000;stroke-width:0.287672;stroke-linecap:round;stroke-linejoin:bevel;paint-order:markers fill stroke"
       id="path2750"
       cx="105.67037"
       cy="73.5"
       r="3.3561642" />
    <circle
       style="fill:#ff0000;fill-opacity:0;stroke:#000000;stroke-width:0.287672;stroke-linecap:round;stroke-linejoin:bevel;paint-order:markers fill stroke"
       id="path2750-2"
       cx="77.616669"
       cy="73.5"
       r="3.3561642" />
    <circle
       style="fill:#ff0000;fill-opacity:0;stroke:#000000;stroke-width:0.287672;stroke-linecap:round;stroke-linejoin:bevel;paint-order:markers fill stroke"
       id="path2750-0"
       cx="133.72408"
       cy="73.5"
       r="3.3561642" />
    <circle
       style="fill:#ff0000;fill-opacity:0;stroke:#000000;stroke-width:0.287672;stroke-linecap:round;stroke-linejoin:bevel;paint-order:markers fill stroke"
       id="path2750-5"
       cx="161.7778"
       cy="73.5"
       r="3.3561642" />
    <circle
       style="fill:#ff0000;fill-opacity:0;stroke:#000000;stroke-width:0.600001;stroke-linecap:round;stroke-linejoin:bevel;paint-order:markers fill stroke"
       id="path2750-6"
       cx="109.50438"
       cy="99.127983"
       r="7" />
    <circle
       style="fill:#ff0000;fill-opacity:0;stroke:#000000;stroke-width:0.600001;stroke-linecap:round;stroke-linejoin:bevel;paint-order:markers fill stroke"
       id="path2750-2-6"
       cx="81.504433"
       cy="99.127983"
       r="7" />
    <circle
       style="fill:#ff0000;fill-opacity:0;stroke:#000000;stroke-width:0.600001;stroke-linecap:round;stroke-linejoin:bevel;paint-order:markers fill stroke"
       id="path2750-0-9"
       cx="137.50432"
       cy="99.127983"
       r="7" />
    <circle
       style="fill:#ff0000;fill-opacity:0;stroke:#000000;stroke-width:0.600001;stroke-linecap:round;stroke-linejoin:bevel;paint-order:markers fill stroke"
       id="path2750-5-9"
       cx="165.50432"
       cy="99.127983"
       r="7" />
  </g>
</svg>
