<?xml version="1.0" encoding="UTF-8" standalone="no"?>
<!-- Created with Inkscape (http://www.inkscape.org/) -->

<svg
   id="svg5"
   version="1.1"
   viewBox="0 0 210 297"
   height="297mm"
   width="210mm"
   sodipodi:docname="jason helgi simon sais box.svg"
   inkscape:version="1.1 (c68e22c387, 2021-05-23)"
   xmlns:inkscape="http://www.inkscape.org/namespaces/inkscape"
   xmlns:sodipodi="http://sodipodi.sourceforge.net/DTD/sodipodi-0.dtd"
   xmlns="http://www.w3.org/2000/svg"
   xmlns:svg="http://www.w3.org/2000/svg">
  <sodipodi:namedview
     id="namedview7"
     pagecolor="#ffffff"
     bordercolor="#666666"
     borderopacity="1.0"
     inkscape:pageshadow="2"
     inkscape:pageopacity="0.0"
     inkscape:pagecheckerboard="0"
     inkscape:document-units="mm"
     showgrid="false"
     inkscape:zoom="0.78239463"
     inkscape:cx="626.28242"
     inkscape:cy="240.28795"
     inkscape:window-width="1280"
     inkscape:window-height="698"
     inkscape:window-x="-6"
     inkscape:window-y="-6"
     inkscape:window-maximized="1"
     inkscape:current-layer="layer1"
     showguides="true"
     inkscape:guide-bbox="true" />
  <defs
     id="defs2" />
  <g
     inkscape:label="Layer 1"
     inkscape:groupmode="layer"
     id="layer1">
    <g
       id="panel2170"
       transform="translate(-0.3381712,4.0580544)">
      <path
         style="fill:none;stroke:#000000;stroke-width:1"
         d="M 58.4,128.9 H 194.8"
         id="path125"
         sodipodi:nodetypes="cc" />
      <path
         style="fill:none;stroke:#000000;stroke-width:1"
         d="m 194.8,128.9 v 5.85 h -3.1 v 6.8 h 3.1 v 9.05 h -3.1 v 6.8 h 3.1 v 9.05 h -3.1 v 6.8 h 3.1 v 5.85"
         id="path127" />
      <path
         style="fill:none;stroke:#000000;stroke-width:1"
         d="m 194.8,179.1 h -7.24 v 3.1 h -7.2 v -3.1 h -7.14 v 3.1 h -7.2 v -3.1 h -7.14 v 3.1 h -7.2 v -3.1 h -7.14 v 3.1 h -7.2 v -3.1 h -7.14 v 3.1 H 123 v -3.1 h -7.14 v 3.1 h -7.2 v -3.1 h -7.14 v 3.1 h -7.2 v -3.1 h -7.14 v 3.1 h -7.2 v -3.1 h -7.14 v 3.1 h -7.2 v -3.1 H 58.4"
         id="path129" />
      <path
         style="fill:none;stroke:#000000;stroke-width:1"
         d="m 58.4,179.1 v -5.85 h 3.1 v -6.8 h -3.1 v -9.05 h 3.1 v -6.8 h -3.1 v -9.05 h 3.1 v -6.8 h -3.1 v -5.85"
         id="path131" />
    </g>
    <g
       id="panel4072"
       transform="translate(-6.0870817,2.0290272)">
      <path
         style="fill:none;stroke:#000000;stroke-width:1"
         d="m 4.1,61.5 h 5.65 v -3.1 h 7.2 v 3.1 h 8.65 v -3.1 h 7.2 v 3.1 h 8.65 v -3.1 h 7.2 v 3.1 h 5.65"
         id="path134" />
      <path
         style="fill:none;stroke:#000000;stroke-width:1"
         d="m 54.3,61.5 v 4.48 h 3.1 v 7.2 h -3.1 v 7.48 7.2 7.48 7.2 7.48 h 3.1 v 7.2 h -3.1 v 4.48"
         id="path136"
         sodipodi:nodetypes="cccccccccccccc" />
      <path
         style="fill:none;stroke:#000000;stroke-width:1"
         d="m 54.3,121.7 h -5.65 v 3.1 h -7.2 v -3.1 H 32.8 v 3.1 h -7.2 v -3.1 h -8.65 v 3.1 h -7.2 v -3.1 H 4.1"
         id="path138" />
      <path
         style="fill:none;stroke:#000000;stroke-width:1"
         d="m 4.1,121.7 v -4.48 H 1 v -7.2 h 3.1 v -7.48 H 1 v -7.2 H 4.1 V 87.86 H 1 v -7.2 H 4.1 V 73.18 H 1 v -7.2 H 4.1 V 61.5"
         id="path140" />
    </g>
    <g
       id="panel3912">
      <path
         style="fill:none;stroke:#000000;stroke-width:1"
         d="M 55.754167,58.4 H 195.85833"
         id="path143"
         sodipodi:nodetypes="cc" />
      <path
         style="fill:none;stroke:#000000;stroke-width:1"
         d="m 195.85833,58.4 v 7.78 H 191.7 v 6.8 h 4.15833 v 7.88 H 191.7 v 21.48 h 4.15833 v 7.88 H 191.7 v 6.8 h 4.15833 v 7.78"
         id="path145"
         sodipodi:nodetypes="cccccccccccccc" />
      <path
         style="fill:none;stroke:#000000;stroke-width:1"
         d="M 195.85833,124.8 H 55.754167"
         id="path147"
         sodipodi:nodetypes="cc" />
      <path
         style="fill:none;stroke:#000000;stroke-width:1"
         d="m 55.754167,124.8 v -7.78 H 61.5 v -6.8 h -5.745833 v -7.88 H 61.5 V 80.86 H 55.754167 V 72.98 H 61.5 v -6.8 H 55.754167 V 58.4"
         id="path149"
         sodipodi:nodetypes="cccccccccccccc" />
    </g>
    <g
       id="panel5452"
       transform="translate(1.0145136)">
      <path
         style="fill:none;stroke:#000000;stroke-width:1"
         d="m 198.9,61.5 h 5.65 v -3.1 h 7.2 v 3.1 h 8.65 v -3.1 h 7.2 v 3.1 h 8.65 v -3.1 h 7.2 v 3.1 h 5.65"
         id="path152" />
      <path
         style="fill:none;stroke:#000000;stroke-width:1"
         d="m 249.1,61.5 v 4.48 h 3.1 v 7.2 h -3.1 v 7.48 h 3.1 v 7.2 h -3.1 v 7.48 h 3.1 v 7.2 h -3.1 v 7.48 h 3.1 v 7.2 h -3.1 v 4.48"
         id="path154" />
      <path
         style="fill:none;stroke:#000000;stroke-width:1"
         d="m 249.1,121.7 h -5.65 v 3.1 h -7.2 v -3.1 h -8.65 v 3.1 h -7.2 v -3.1 h -8.65 v 3.1 h -7.2 v -3.1 h -5.65"
         id="path156" />
      <path
         style="fill:none;stroke:#000000;stroke-width:1"
         d="m 198.9,121.7 v -4.48 h -3.1 v -7.2 h 3.1 V 73.18 h -3.1 v -7.2 h 3.1 V 61.5"
         id="path158"
         sodipodi:nodetypes="cccccccccc" />
    </g>
    <g
       id="panel6057"
       transform="translate(1.3526848)">
      <path
         style="fill:none;stroke:#000000;stroke-width:1"
         d="m 253.2,58.4 h 7.44 v 3.1 h 6.8 v -3.1 h 7.54 v 3.1 h 6.8 v -3.1 h 7.54 v 3.1 h 6.8 v -3.1 h 7.54 v 3.1 h 6.8 V 58.4 H 318 v 3.1 h 6.8 v -3.1 h 7.54 v 3.1 h 6.8 v -3.1 h 7.54 v 3.1 h 6.8 v -3.1 h 7.54 v 3.1 h 6.8 v -3.1 h 7.54 v 3.1 h 6.8 v -3.1 h 7.44"
         id="path161" />
      <path
         style="fill:none;stroke:#000000;stroke-width:1"
         d="m 389.6,58.4 v 7.78 h -3.1 v 6.8 h 3.1 v 7.88 h -3.1 v 6.8 h 3.1 v 7.88 h -3.1 v 6.8 h 3.1 v 7.88 h -3.1 v 6.8 h 3.1 v 7.78"
         id="path163" />
      <path
         style="fill:none;stroke:#000000;stroke-width:1"
         d="m 389.6,124.8 h -7.44 v -3.1 h -6.8 v 3.1 h -7.54 v -3.1 h -6.8 v 3.1 h -7.54 v -3.1 h -6.8 v 3.1 h -7.54 v -3.1 h -6.8 v 3.1 h -7.54 v -3.1 H 318 v 3.1 h -7.54 v -3.1 h -6.8 v 3.1 h -7.54 v -3.1 h -6.8 v 3.1 h -7.54 v -3.1 h -6.8 v 3.1 h -7.54 v -3.1 h -6.8 v 3.1 h -7.44"
         id="path165" />
      <path
         style="fill:none;stroke:#000000;stroke-width:1"
         d="m 253.2,124.8 v -7.78 h 3.1 v -6.8 h -3.1 v -7.88 h 3.1 v -6.8 h -3.1 v -7.88 h 3.1 v -6.8 h -3.1 v -7.88 h 3.1 v -6.8 h -3.1 V 58.4"
         id="path167" />
    </g>
    <g
       id="panel2616"
       transform="translate(-0.67634241,-3.0435408)">
      <path
         style="fill:none;stroke:#000000;stroke-width:1"
         d="m 58.4,4.1 h 7.24 V 1 h 7.2 v 3.1 h 7.14 V 1 h 7.2 v 3.1 h 7.14 V 1 h 7.2 v 3.1 h 7.14 V 1 h 7.2 V 4.1 H 123 V 1 h 7.2 v 3.1 h 7.14 V 1 h 7.2 v 3.1 h 7.14 V 1 h 7.2 v 3.1 h 7.14 V 1 h 7.2 v 3.1 h 7.14 V 1 h 7.2 v 3.1 h 7.24"
         id="path170" />
      <path
         style="fill:none;stroke:#000000;stroke-width:1"
         d="m 194.8,4.1 v 5.85 h -3.1 v 6.8 h 3.1 v 9.05 h -3.1 v 6.8 h 3.1 v 9.05 h -3.1 v 6.8 h 3.1 v 5.85"
         id="path172" />
      <path
         style="fill:none;stroke:#000000;stroke-width:1"
         d="M 194.8,54.3 H 58.4"
         id="path174"
         sodipodi:nodetypes="cc" />
      <path
         style="fill:none;stroke:#000000;stroke-width:1"
         d="m 58.4,54.3 v -5.85 h 3.1 v -6.8 H 58.4 V 32.6 h 3.1 v -6.8 h -3.1 v -9.05 h 3.1 V 9.95 H 58.4 V 4.1"
         id="path176" />
    </g>
    <circle
       style="fill:#ff0000;fill-opacity:0;stroke:#000000;stroke-width:0.287672;stroke-linecap:round;stroke-linejoin:bevel;paint-order:markers fill stroke"
       id="path2750"
       cx="103.5"
       cy="73.5"
       r="3.3561642" />
    <circle
       style="fill:#ff0000;fill-opacity:0;stroke:#000000;stroke-width:0.287672;stroke-linecap:round;stroke-linejoin:bevel;paint-order:markers fill stroke"
       id="path2750-2"
       cx="78.5"
       cy="73.5"
       r="3.3561642" />
    <circle
       style="fill:#ff0000;fill-opacity:0;stroke:#000000;stroke-width:0.287672;stroke-linecap:round;stroke-linejoin:bevel;paint-order:markers fill stroke"
       id="path2750-0"
       cx="133.5"
       cy="73.5"
       r="3.3561642" />
    <circle
       style="fill:#ff0000;fill-opacity:0;stroke:#000000;stroke-width:0.287672;stroke-linecap:round;stroke-linejoin:bevel;paint-order:markers fill stroke"
       id="path2750-5"
       cx="163.5"
       cy="73.5"
       r="3.3561642" />
    <ellipse
       style="fill:#ff0000;fill-opacity:0;stroke:#000000;stroke-width:0.328768;stroke-linecap:round;stroke-linejoin:bevel;paint-order:markers fill stroke"
       id="path2750-6"
       cx="104"
       cy="95.82798"
       rx="3.8356161"
       ry="3.8356164" />
    <ellipse
       style="fill:#ff0000;fill-opacity:0;stroke:#000000;stroke-width:0.328768;stroke-linecap:round;stroke-linejoin:bevel;paint-order:markers fill stroke"
       id="path2750-2-6"
       cx="79"
       cy="95.82798"
       rx="3.8356161"
       ry="3.8356164" />
    <ellipse
       style="fill:#ff0000;fill-opacity:0;stroke:#000000;stroke-width:0.328768;stroke-linecap:round;stroke-linejoin:bevel;paint-order:markers fill stroke"
       id="path2750-0-9"
       cx="134"
       cy="95.82798"
       rx="3.8356161"
       ry="3.8356164" />
    <ellipse
       style="fill:#ff0000;fill-opacity:0;stroke:#000000;stroke-width:0.328768;stroke-linecap:round;stroke-linejoin:bevel;paint-order:markers fill stroke"
       id="path2750-5-9"
       cx="164"
       cy="95.82798"
       rx="3.8356161"
       ry="3.8356164" />
    <g
       aria-label="Jason helgi"
       id="text1520"
       style="font-size:9.87777px;line-height:1.25;stroke-width:0.264583">
      <path
         d="m 70.555956,14.027495 q 0,0.945334 -0.578776,1.456586 -0.573952,0.511252 -1.543401,0.511252 -0.23151,0 -0.617361,-0.04341 -0.38585,-0.03858 -0.646299,-0.09646 v -0.892279 h 0.05305 q 0.197748,0.06752 0.487136,0.13987 0.289388,0.07235 0.593245,0.07235 0.443728,0 0.704177,-0.101285 0.265272,-0.101286 0.390674,-0.289388 0.130224,-0.192925 0.163986,-0.472667 0.03858,-0.279741 0.03858,-0.646299 V 9.4744606 H 68.08169 V 8.7124061 h 2.474266 z"
         id="path2963" />
      <path
         d="m 76.526991,15.894047 h -0.901925 v -0.573953 q -0.120579,0.08199 -0.327973,0.231511 -0.202572,0.144693 -0.395497,0.23151 -0.226687,0.110932 -0.520898,0.183279 -0.294211,0.07717 -0.689707,0.07717 -0.728293,0 -1.234722,-0.482313 -0.506428,-0.482313 -0.506428,-1.229898 0,-0.612538 0.260449,-0.988742 0.265272,-0.381027 0.752408,-0.598068 0.491959,-0.217041 1.181667,-0.294211 0.689707,-0.07717 1.480701,-0.115755 v -0.139871 q 0,-0.30868 -0.110932,-0.511252 -0.106109,-0.202571 -0.308681,-0.318326 -0.192925,-0.110932 -0.46302,-0.149517 -0.270095,-0.03859 -0.564306,-0.03859 -0.356912,0 -0.795817,0.09646 -0.438905,0.09164 -0.906748,0.270095 h -0.04823 v -0.921217 q 0.265273,-0.07235 0.766878,-0.159164 0.501606,-0.08682 0.988742,-0.08682 0.569129,0 0.988741,0.09646 0.424436,0.09164 0.733116,0.318326 0.303857,0.221864 0.463021,0.573953 0.159163,0.352088 0.159163,0.872986 z m -0.901925,-1.326361 v -1.499993 q -0.414789,0.02412 -0.979096,0.07235 -0.559483,0.04823 -0.887456,0.13987 -0.390673,0.110932 -0.63183,0.347266 -0.241156,0.23151 -0.241156,0.641476 0,0.46302 0.279741,0.699354 0.279742,0.23151 0.853694,0.23151 0.47749,0 0.872987,-0.183279 0.395497,-0.188102 0.733116,-0.448551 z"
         id="path2965" />
      <path
         d="m 82.121822,14.340999 q 0,0.737939 -0.612538,1.210606 -0.607714,0.472666 -1.66398,0.472666 -0.598068,0 -1.099673,-0.13987 -0.496783,-0.144694 -0.834402,-0.313504 v -1.01768 h 0.04823 q 0.429259,0.323149 0.95498,0.516075 0.525721,0.188102 1.008034,0.188102 0.598069,0 0.935688,-0.192926 0.337619,-0.192925 0.337619,-0.607714 0,-0.318327 -0.183279,-0.482313 -0.183279,-0.163986 -0.704177,-0.279742 -0.192925,-0.04341 -0.506429,-0.101285 -0.30868,-0.05788 -0.564306,-0.125402 -0.709,-0.188102 -1.008034,-0.549836 -0.294211,-0.366558 -0.294211,-0.897103 0,-0.332796 0.135047,-0.627007 0.139871,-0.294211 0.419613,-0.525721 0.270095,-0.226687 0.684884,-0.356911 0.419613,-0.135048 0.935687,-0.135048 0.482313,0 0.974273,0.120578 0.496782,0.115755 0.824755,0.284565 v 0.969449 h -0.04823 q -0.347266,-0.255626 -0.844048,-0.429259 -0.496782,-0.178455 -0.974272,-0.178455 -0.496783,0 -0.839225,0.192925 -0.342442,0.188102 -0.342442,0.564306 0,0.332796 0.207394,0.501606 0.202572,0.168809 0.655946,0.274918 0.250803,0.05788 0.559483,0.115755 0.313504,0.05788 0.520898,0.106109 0.63183,0.144694 0.974272,0.496782 0.342443,0.356912 0.342443,0.945334 z"
         id="path2967" />
      <path
         d="m 88.010863,13.20274 q 0,1.316715 -0.675238,2.078769 -0.675238,0.762055 -1.808674,0.762055 -1.143082,0 -1.81832,-0.762055 -0.670415,-0.762054 -0.670415,-2.078769 0,-1.316714 0.670415,-2.078769 0.675238,-0.766878 1.81832,-0.766878 1.133436,0 1.808674,0.766878 0.675238,0.762055 0.675238,2.078769 z m -0.935687,0 q 0,-1.046619 -0.409966,-1.553048 -0.409966,-0.511251 -1.138259,-0.511251 -0.737939,0 -1.147905,0.511251 -0.405143,0.506429 -0.405143,1.553048 0,1.012858 0.409966,1.538579 0.409966,0.520898 1.143082,0.520898 0.72347,0 1.133436,-0.516075 0.414789,-0.520898 0.414789,-1.543402 z"
         id="path2969" />
      <path
         d="M 93.919198,15.894047 H 93.01245 v -3.067511 q 0,-0.371381 -0.04341,-0.694531 -0.04341,-0.327973 -0.159164,-0.511251 -0.120578,-0.202572 -0.347265,-0.299035 -0.226687,-0.101285 -0.588422,-0.101285 -0.371381,0 -0.776524,0.183279 -0.405143,0.183279 -0.776524,0.467843 v 4.022491 H 89.414395 V 10.50661 h 0.906748 v 0.598069 q 0.424436,-0.352089 0.87781,-0.549837 0.453374,-0.197749 0.930864,-0.197749 0.872987,0 1.331184,0.525722 0.458197,0.525721 0.458197,1.514462 z"
         id="path2971" />
      <path
         d="m 103.64263,15.894047 h -0.90675 v -3.067511 q 0,-0.371381 -0.0434,-0.694531 -0.0434,-0.327973 -0.15916,-0.511251 -0.12058,-0.202572 -0.34727,-0.299035 -0.22668,-0.101285 -0.58842,-0.101285 -0.37138,0 -0.77652,0.183279 -0.40515,0.183279 -0.77653,0.467843 v 4.022491 H 99.137825 V 8.3892564 h 0.906745 v 2.7154226 q 0.42444,-0.352089 0.87781,-0.549837 0.45338,-0.197749 0.93087,-0.197749 0.87298,0 1.33118,0.525722 0.4582,0.525721 0.4582,1.514462 z"
         id="path2973" />
      <path
         d="m 109.89823,13.29438 h -3.96944 q 0,0.496782 0.14952,0.868163 0.14952,0.366558 0.40997,0.602891 0.2508,0.231511 0.59324,0.347266 0.34727,0.115755 0.76205,0.115755 0.54984,0 1.1045,-0.217041 0.55948,-0.221864 0.79582,-0.434082 h 0.0482 v 0.988742 q -0.4582,0.192925 -0.93569,0.32315 -0.47749,0.130224 -1.00321,0.130224 -1.34083,0 -2.09324,-0.723469 -0.75241,-0.728293 -0.75241,-2.0643 0,-1.321538 0.71865,-2.098062 0.72347,-0.776524 1.90031,-0.776524 1.09003,0 1.67845,0.636654 0.59325,0.636653 0.59325,1.808673 z m -0.88263,-0.694531 q -0.005,-0.713823 -0.36174,-1.104497 -0.35209,-0.390673 -1.07556,-0.390673 -0.72829,0 -1.16237,0.429258 -0.42926,0.429259 -0.48714,1.065912 z"
         id="path2975" />
      <path
         d="m 112.18922,15.894047 h -0.90675 V 8.3892564 h 0.90675 z"
         id="path2977" />
      <path
         d="m 118.35318,15.281509 q 0,1.369769 -0.62219,2.011246 -0.62218,0.641476 -1.91478,0.641476 -0.42926,0 -0.83923,-0.0627 -0.40514,-0.05788 -0.80063,-0.168809 V 16.77668 h 0.0482 q 0.22186,0.08682 0.70417,0.212217 0.48232,0.130225 0.96463,0.130225 0.46302,0 0.76688,-0.110932 0.30385,-0.110932 0.47266,-0.30868 0.16881,-0.188103 0.24116,-0.453375 0.0724,-0.265272 0.0724,-0.593245 v -0.491959 q -0.40997,0.327973 -0.78617,0.491959 -0.37138,0.159164 -0.95016,0.159164 -0.96463,0 -1.53375,-0.694531 -0.56431,-0.699354 -0.56431,-1.967837 0,-0.694531 0.19292,-1.196136 0.19775,-0.506429 0.53537,-0.872987 0.3135,-0.342442 0.76206,-0.530544 0.44855,-0.192926 0.89228,-0.192926 0.46784,0 0.78134,0.09646 0.31833,0.09164 0.67042,0.284565 l 0.0579,-0.231511 h 0.84888 z m -0.90675,-0.868163 V 11.47606 q -0.36174,-0.163987 -0.67524,-0.231511 -0.30868,-0.07235 -0.61736,-0.07235 -0.74759,0 -1.17685,0.501606 -0.42925,0.501605 -0.42925,1.456585 0,0.906749 0.31832,1.374592 0.31833,0.467844 1.05627,0.467844 0.39549,0 0.79099,-0.149517 0.40032,-0.15434 0.73312,-0.409966 z"
         id="path2979" />
      <path
         d="m 121.112,9.6046851 h -1.0225 V 8.6641748 h 1.0225 z m -0.0579,6.2893619 h -0.90675 V 10.50661 h 0.90675 z"
         id="path2981" />
    </g>
  </g>
</svg>
